# xmcd
#
# Track frame offsets: 
#        150
#        26210
#        56637
#        67573
#        82275
#        89841
#        111180
#        125495
#        141033
#        169827
#        205288
#        224107
#        246027
#        277015
#        294750
#        308264
#        324683
#
# Disc length: 4676 seconds
#
# Revision: 0
# Processed by: cddbd v1.5.2PL0 Copyright (c) Steve Scherf et al.
# Submitted via: ExactAudioCopy v0.99pb5
#
DISCID=06124211
DTITLE=Hawkwind  - Levitation, Disc 1
DYEAR=1900
DGENRE=
TTITLE0=Levitation
TTITLE1=Motor Way City
TTITLE2=Psychosis
TTITLE3=World of Tiers
TTITLE4=Prelude
TTITLE5=Who's Gonna Win the War
TTITLE6=Space Chase
TTITLE7=The 5th Second of Forever
TTITLE8=Dust of Time
TTITLE9=Valium 10
TTITLE10=Time Of
TTITLE11=Who's Gonna Win the War [Hawklords Version]
TTITLE12=Douglas in the Jungle
TTITLE13=British Tribal Music
TTITLE14=Nuclear Toy
TTITLE15=Who's Gonna Win the War
TTITLE16=Brainstorm
EXTD=
EXTT0=
EXTT1=
EXTT2=
EXTT3=
EXTT4=
EXTT5=
EXTT6=
EXTT7=
EXTT8=
EXTT9=
EXTT10=
EXTT11=
EXTT12=
EXTT13=
EXTT14=
EXTT15=
EXTT16=
PLAYORDER=
